<?xml version="1.0" standalone="no"?>
<!DOCTYPE svg PUBLIC "-//W3C//DTD SVG 1.1//EN" "http://www.w3.org/Graphics/SVG/1.1/DTD/svg11.dtd" >
<svg xmlns="http://www.w3.org/2000/svg" xmlns:xlink="http://www.w3.org/1999/xlink" version="1.1">
<metadata>
Created by FontForge 20170924 at Thu Aug 25 14:49:08 2022
 By www
Copyright (c) 2022 by Pentagonistudio. All rights reserved.
</metadata>
<defs>
<font id="CaghenDemo" horiz-adv-x="224" >
  <font-face 
    font-family="CaghenDemo"
    font-weight="400"
    font-stretch="normal"
    units-per-em="1000"
    panose-1="2 0 5 4 0 0 0 2 0 4"
    ascent="750"
    descent="-250"
    x-height="477"
    cap-height="646"
    bbox="2 -234 952 728"
    underline-thickness="50"
    underline-position="-100"
    unicode-range="U+0020-007A"
  />
    <missing-glyph />
    <glyph glyph-name="space" unicode=" " horiz-adv-x="240" 
 />
    <glyph glyph-name="A" unicode="A" horiz-adv-x="698" 
d="M472 0q14 5 24.5 12.5t15.5 19.5t3.5 29.5t-11.5 41.5l-74 179h-217l-46 -135q-11 -35 -12 -59t7 -41t24 -28t37 -19h-221q27 8 49.5 17.5t41.5 25.5t35.5 41t30.5 63l45 135h-70v8h73l129 380h11l232 -567q12 -27 24.5 -44.5t26.5 -29t30.5 -18t35.5 -11.5h-224z
M427 290l-116 283l-96 -283h212z" />
    <glyph glyph-name="B" unicode="B" horiz-adv-x="541" 
d="M335 371q66 -7 108 -37t61 -71t16 -87.5t-27.5 -85.5t-69.5 -64.5t-110 -25.5h-311l15 1q26 2 42.5 20t16.5 43v518q0 25 -16.5 43t-41.5 20l-16 1h304q49 0 83.5 -19t54 -47.5t23.5 -63t-9 -65t-43.5 -53t-79.5 -27.5zM148 373h141h-28q43 0 71.5 19.5t43 49t14.5 64
t-14.5 64t-43 49t-71.5 19.5h28h-141v-265zM269 8q58 0 96.5 26.5t58 66t19.5 86t-19.5 86t-58 66t-96.5 26.5h-121v-357h121zM76 365h-74v8h74v-8z" />
    <glyph glyph-name="C" unicode="C" horiz-adv-x="578" 
d="M335 -7q-81 0 -141 28t-99.5 74t-58 105t-16.5 120t24 120t63 105t101.5 74t140.5 28v-1h168l8 -146q-5 16 -15 39.5t-31 45.5t-58 37.5t-96 15.5q-38 0 -78.5 -19t-74 -55t-55 -89.5t-21.5 -122.5q0 -75 20 -133.5t55.5 -99t84.5 -62t108 -21.5q44 0 78.5 13.5
t59.5 30.5q29 19 51 44l5 -4q-34 -57 -89.5 -92t-133.5 -35z" />
    <glyph glyph-name="D" unicode="D" horiz-adv-x="592" 
d="M242 646q82 0 144 -28t103.5 -73.5t62 -103.5t20 -118.5t-21 -118.5t-62 -103.5t-103.5 -73t-144 -27.5h-239l16 1q25 2 42 20t17 43v518q0 25 -17 43t-42 20l-16 1h240zM201 8q72 0 126.5 27t90.5 71.5t54 101t18 115.5t-18 115.5t-54 101t-90.5 71.5t-126.5 27h-52
v-630h52z" />
    <glyph glyph-name="E" unicode="E" horiz-adv-x="485" 
d="M77 376h-75v8h75v-8zM363 8q17 0 33 15.5t29.5 37t24 45t15.5 40.5l-8 -146h-455l16 1q25 2 42 20t17 43v518q0 25 -17 43t-42 20l-16 1h437l8 -146q-5 16 -15.5 40t-24 45.5t-29.5 37t-34 15.5h-195v-254h140q35 0 59.5 24t35.5 57v-171q-11 34 -35.5 58t-59.5 24h-140
v-368h214z" />
    <glyph glyph-name="F" unicode="F" horiz-adv-x="467" 
d="M289 384q35 0 59.5 24t35.5 57v-171q-11 34 -35.5 58t-59.5 24h-140v-312q0 -25 16.5 -43t41.5 -20l16 -1h-221l16 1q25 2 42 20t17 43v312h-75v8h75v198q0 25 -17 43t-42 20l-16 1h437l8 -146q-5 16 -15.5 40t-24 45.5t-29.5 37t-34 15.5h-195v-254h140v0z" />
    <glyph glyph-name="G" unicode="G" horiz-adv-x="679" 
d="M473 -6q26 2 42.5 20t17.5 43v87q-17 -43 -43 -76q-23 -29 -58.5 -52t-88.5 -23q-82 0 -143 28t-101.5 74t-59.5 104.5t-18 120t23 120t64.5 104.5t105 74t145.5 28h197l8 -146q-5 16 -15 40t-30.5 46t-54.5 37.5t-87 15.5q-69 0 -121 -27.5t-86.5 -72.5t-52 -102.5
t-19 -117.5t13.5 -117.5t45.5 -102.5t77 -72.5t108.5 -27.5q46 0 81.5 21t58.5 53.5t35 70.5t12 72v175h-141q-35 0 -59.5 -24t-35.5 -57v89h308v-342q0 -25 17 -43t42 -20l16 -1h-219l15 1v0z" />
    <glyph glyph-name="H" unicode="H" horiz-adv-x="622" 
d="M546 64q0 -25 16.5 -43t41.5 -20l16 -1h-221l16 1q25 2 41.5 20t16.5 43v312h-325v-312q0 -25 17 -43t42 -20l16 -1h-221l16 1q25 2 41.5 20t16.5 43v312h-74v8h74v198q0 25 -16.5 43t-41.5 20l-16 1h221l-16 -1q-25 -2 -42 -20t-17 -43v-198h325v198q0 25 -16.5 43
t-41.5 20l-16 1h221l-16 -1q-25 -2 -41.5 -20t-16.5 -43v-518v0z" />
    <glyph glyph-name="I" unicode="I" 
d="M148 64q0 -25 17 -43t42 -20l15 -1h-220l15 1q25 2 42 20t17 43v518q0 25 -17 43t-42 20l-15 1h220l-15 -1q-25 -2 -42 -20t-17 -43v-518z" />
    <glyph glyph-name="J" unicode="J" 
d="M148 176v-10q0 -65 -6.5 -118.5t-23 -92t-44.5 -60t-72 -21.5v8q25 0 40 30t22.5 80t9.5 116.5t2 138.5v335q0 25 -17 43t-42 20l-15 1h220l-15 -1q-25 -2 -42 -20t-17 -43v-406z" />
    <glyph glyph-name="K" unicode="K" horiz-adv-x="625" 
d="M397 0q17 0 26 9.5t11.5 24.5t-1.5 33t-13 36l-156 313l-115 -147v-205q0 -25 16.5 -43t41.5 -20l16 -1h-221l16 1q25 2 42 20t17 43v518q0 25 -17 43t-42 20l-16 1h221l-16 -1q-25 -2 -41.5 -20t-16.5 -43v-303l112 143l60 77q40 51 42.5 91t-32.5 56h221
q-30 -8 -61 -22.5t-60.5 -34t-55.5 -42.5t-46 -48l-17 -22l186 -374q9 -18 21.5 -36t28 -33t34.5 -24.5t41 -9.5h-226v0z" />
    <glyph glyph-name="L" unicode="L" horiz-adv-x="485" 
d="M363 8q17 0 33 15.5t29.5 37t24 45t15.5 40.5l-8 -146h-455l16 1q25 2 42 20t17 43v518q0 25 -17 43t-42 20l-16 1h221l-16 -1q-25 -2 -41.5 -20t-16.5 -43v-574h214v0z" />
    <glyph glyph-name="M" unicode="M" horiz-adv-x="824" 
d="M748 64q0 -25 16.5 -43t41.5 -20l16 -1h-221l16 1q25 2 42 20t17 43v490l-261 -561h-8l-291 565v-411q0 -64 28 -105.5t78 -41.5h-220q49 0 77.5 40t28.5 107v352q0 45 -6 73.5t-19 45t-33 22.5t-48 6h151l293 -564l261 564h115l-16 -1q-25 -2 -41.5 -20t-16.5 -43v-518
v0z" />
    <glyph glyph-name="N" unicode="N" horiz-adv-x="617" 
d="M117 147q0 -64 28.5 -105.5t77.5 -41.5h-221q51 0 79 41t28 106v352q0 31 -7 58t-20.5 46.5t-33.5 31t-46 11.5h132l367 -539v392q0 69 -27.5 108t-78.5 39h220q-48 0 -77 -39t-29 -108v-516h-8l-384 571v-407v0z" />
    <glyph glyph-name="O" unicode="O" horiz-adv-x="664" 
d="M332 -7q-78 0 -136.5 28.5t-97.5 75t-58.5 105.5t-19.5 121t19.5 121t58.5 105.5t97.5 75t136.5 28.5t136.5 -28.5t97.5 -75t58.5 -105.5t19.5 -121t-19.5 -121t-58.5 -105.5t-97.5 -75t-136.5 -28.5zM332 647q-59 0 -103.5 -28t-74 -73.5t-44 -103.5t-14.5 -119
t14.5 -119t44 -103.5t74 -73.5t103.5 -28t103.5 28t74 73.5t44 103.5t14.5 119t-14.5 119t-44 103.5t-74 73.5t-103.5 28z" />
    <glyph glyph-name="P" unicode="P" horiz-adv-x="509" 
d="M264 646q74 0 124 -27.5t75 -69t25.5 -90t-24 -90t-73.5 -69t-122 -27.5h-121v-209q0 -25 16.5 -43t42.5 -20l15 -1h-220l15 1q25 2 42 20t17 43v209h-74v8h74v301q0 25 -17 43t-42 20l-15 1h262zM256 281q54 0 90.5 26.5t54.5 66t18 86t-18 86t-54.5 66t-90.5 26.5h-108
v-357h108z" />
    <glyph glyph-name="Q" unicode="Q" horiz-adv-x="665" 
d="M313 -6q-74 3 -129.5 33t-92.5 77t-54.5 105.5t-16.5 120t21.5 119.5t59.5 103.5t96.5 73t134.5 27.5q78 0 136 -28t97 -74t58.5 -105t19.5 -120.5t-19 -120.5t-58 -106t-97.5 -76t-136.5 -30q-2 0 -5 0.5t-5 0.5q34 -40 118 -67t205 -27l-47 -50q-51 9 -102 28
q-44 16 -93 44t-90 72zM332 647q-59 0 -103 -28t-73 -73.5t-44 -103.5t-15 -119t15 -119t44 -103.5t73 -73.5t103 -28t103.5 28t74 73.5t44 103.5t14.5 119t-14.5 119t-44 103.5t-74 73.5t-103.5 28z" />
    <glyph glyph-name="R" unicode="R" horiz-adv-x="564" 
d="M336 0q15 0 23.5 9.5t11.5 24.5t0 33t-12 36l-85 170l6 1q-3 0 -5.5 -0.5t-5.5 -0.5h-121v-209q0 -25 16.5 -43t41.5 -20l16 -1h-220l15 1q25 2 42 20t17 43v209h-74v8h74v301q0 25 -17 43t-42 20l-15 1h262q67 0 114 -22.5t74 -58t33.5 -78t-6.5 -83t-46.5 -73
t-86.5 -47.5l91 -181q9 -18 22.5 -36t30 -33t35 -24.5t37.5 -9.5h-226zM256 281q54 0 90.5 26.5t54.5 66t18 86t-18 86t-54.5 66t-90.5 26.5h-108v-357h108z" />
    <glyph glyph-name="S" unicode="S" horiz-adv-x="514" 
d="M234 2q5 0 20.5 0.5t35.5 4.5t41.5 12.5t40 25t30.5 41t12 61.5q0 48 -28 80t-70.5 56t-92 43.5t-92 42.5t-70.5 54.5t-28 79.5q0 52 25 83t64.5 47t87 19t92.5 -2t81.5 -14t53.5 -18l9 -170q-6 17 -15 50t-29.5 66t-56 57.5t-94.5 24.5q-39 0 -66.5 -10t-45.5 -26
t-26 -36t-8 -40q0 -47 29 -75.5t72 -49t93.5 -38t93.5 -42t72 -61.5t29 -97q0 -58 -28 -95t-72 -57t-97.5 -24.5t-105.5 2t-95.5 21.5t-66.5 35l-9 213q4 -11 10.5 -35t17.5 -53.5t26.5 -60.5t38 -56.5t52.5 -42t69 -16.5z" />
    <glyph glyph-name="T" unicode="T" horiz-adv-x="540" 
d="M520 500q-6 16 -16 40t-23.5 45.5t-29.5 37t-34 15.5h-111v-574q0 -25 17 -43t42 -20l15 -1h-220l15 1q25 2 42 20t17 43v574h-111q-18 0 -34 -15.5t-29.5 -37t-23.5 -45.5t-16 -40l8 146h484z" />
    <glyph glyph-name="U" unicode="U" horiz-adv-x="642" 
d="M640 646q-49 0 -77.5 -40t-28.5 -107v-289q0 -69 -34 -118t-85 -74t-110 -26t-110 25.5t-85 81t-34 139.5v344q0 25 -17 43t-42 20l-15 1h220l-15 -1q-26 -2 -42.5 -20t-16.5 -43v-342q0 -76 28 -125.5t70 -74.5t91 -25t91 23.5t70 70t28 115.5v275q0 66 -29 106.5
t-77 40.5h220z" />
    <glyph glyph-name="V" unicode="V" horiz-adv-x="670" 
d="M358 71l145 428q25 72 7.5 109.5t-63.5 37.5h221q-51 0 -91.5 -39t-65.5 -108l-172 -506h-13h-5l-206 550q-16 50 -45.5 76.5t-67.5 26.5h224q-29 0 -42 -26.5t6 -76.5l175 -465z" />
    <glyph glyph-name="W" unicode="W" horiz-adv-x="954" 
d="M109 543q-32 103 -107 103h224q-29 0 -43 -24.5t2 -78.5l144 -447l129 457l29 100h14l178 -558l116 404q20 74 -0.5 110.5t-63.5 36.5h221q-107 0 -149 -147l-148 -516h-15l-177 557l-158 -557h-15z" />
    <glyph glyph-name="X" unicode="X" horiz-adv-x="626" 
d="M2 0q55 0 102 37.5t89 109.5l97 167l-133 229q-29 56 -61 79.5t-72 23.5h227q-12 0 -22 -5.5t-13.5 -18t1 -32t19.5 -47.5l93 -161l67 117q21 39 28 66.5t2.5 45.5t-18 26.5t-33.5 8.5h221q-57 0 -102 -35.5t-90 -111.5l-71 -123l158 -273q31 -54 62.5 -78.5t70.5 -24.5
h-227q13 0 23 6t13.5 18.5t-1 32t-20.5 46.5l-118 204l-93 -160q-38 -69 -28.5 -108t49.5 -39h-220v0z" />
    <glyph glyph-name="Y" unicode="Y" horiz-adv-x="604" 
d="M323 64q0 -25 17 -43t42 -20l15 -1h-220l15 1q25 2 42 20t17 43v280l-115 199q-29 54 -60.5 78.5t-73.5 24.5h228q-13 0 -22.5 -6t-13 -18.5t1 -32t19.5 -46.5l105 -187l82 143q39 74 29 110.5t-50 36.5h221q-55 0 -102.5 -36t-89.5 -111l-87 -151v-284z" />
    <glyph glyph-name="Z" unicode="Z" horiz-adv-x="508" 
d="M385 7q18 0 34 15.5t29.5 37.5t23.5 45.5t16 40.5l-8 -146h-460l369 638h-241q-18 0 -34 -15.5t-29.5 -37t-23.5 -45.5t-16 -40l8 146h424l-366 -639h274v0z" />
    <glyph glyph-name="a" unicode="a" horiz-adv-x="458" 
d="M273 1q23 2 38 20t15 43v130q-3 -68 -27 -111.5t-58 -65.5t-73 -24t-71.5 13t-54.5 46.5t-22 75.5q0 43 15 72t40 48t57 30t65 19t65 14.5t58 16.5v24q0 25 -6 47.5t-19 39.5t-33.5 27.5t-48.5 10.5q-41 0 -67.5 -16t-42.5 -38t-24.5 -46.5t-14.5 -40.5l8 116
q15 8 44.5 17t64.5 13.5t72 2t67 -17t49.5 -43.5t19.5 -77v-284q0 -24 15 -42t38 -20l14 -1h-197zM320 321q-12 -5 -34 -10t-48.5 -13t-54 -19t-50 -28.5t-36.5 -42t-14 -58.5q0 -46 17.5 -76.5t44 -43.5t57 -8.5t57 27t44 64t17.5 102.5v106z" />
    <glyph glyph-name="b" unicode="b" horiz-adv-x="518" 
d="M138 343q15 55 47.5 89t72.5 46.5t82.5 4t77.5 -38.5t57.5 -81.5t22.5 -123.5q0 -71 -21.5 -122t-55 -81t-74.5 -39.5t-80.5 1t-73 41.5t-51.5 83q-4 11 -6.5 22t-4.5 22v-102q0 -25 15 -43t38 -20l14 -1h-196l14 1q23 2 38 20t15 43v497q0 11 -7 18t-17 7h-36l129 138
v-381zM138 246q0 -75 21.5 -125t53.5 -75t70 -25t70 25t53.5 74.5t21.5 124.5q0 72 -21.5 120t-53.5 71.5t-69.5 23.5t-70 -23.5t-54 -71.5t-21.5 -119z" />
    <glyph glyph-name="c" unicode="c" horiz-adv-x="408" 
d="M388 87q-16 -27 -37 -48q-18 -18 -45.5 -32.5t-63.5 -14.5q-56 0 -97.5 21.5t-69 56t-41.5 79t-13.5 91t14.5 91t41.5 79t69 55.5t97.5 21q32 0 56 -5.5t41 -11.5q19 -8 35 -17l7 -117q-5 17 -14.5 41t-26.5 46.5t-43 38.5t-63 16q-35 0 -62.5 -16.5t-47 -45.5t-30 -68
t-10.5 -85q0 -63 17 -108t43.5 -73t60 -40.5t66.5 -10.5t63 17.5t49 43.5l4 -4v0z" />
    <glyph glyph-name="d" unicode="d" horiz-adv-x="518" 
d="M333 1q23 2 38 20t15 43v99q-12 -63 -43.5 -102.5t-72 -56.5t-85 -10.5t-81 36t-60.5 81.5t-24 128q0 72 22.5 123t57.5 81t77.5 39t82.5 -3t72.5 -45t47.5 -87v214q0 11 -7 18t-18 7h-36l130 138v-547v-114q0 -25 15 -42.5t38 -19.5l14 -2h-197zM380 254q-1 69 -23 115
t-54 68.5t-69 22t-69 -24.5t-53 -71.5t-21 -118.5q0 -74 21 -123.5t53 -75t69 -26t69 23t54 71.5t23 121v18z" />
    <glyph glyph-name="e" unicode="e" horiz-adv-x="423" 
d="M38 354q10 28 27 52t40 42t51 28t60 10q31 0 55.5 -6t43 -16t32.5 -22.5t24 -25.5q23 -31 32 -70h-306q-4 -19 -5.5 -40t-1.5 -44q0 -63 17 -108t43.5 -73t60 -40.5t66.5 -10.5t63 17.5t49 43.5l4 -4q-15 -27 -38 -48q-20 -18 -49.5 -32.5t-69.5 -14.5q-65 0 -111 30.5
t-72 80.5t-31 113.5t13 129.5zM216 477q-45 0 -75 -33.5t-42 -89.5h234q0 17 -6.5 38.5t-20.5 40t-36.5 31.5t-53.5 13z" />
    <glyph glyph-name="f" unicode="f" horiz-adv-x="332" 
d="M145 65q0 -26 17 -44t42 -20l16 -1h-218l16 1q25 2 42 20t17 44v404h-61v8h61l-1 72q0 37 8 69.5t25 57t43 38.5t62 14q30 0 50.5 -5.5t33.5 -12.5q15 -8 24 -17l8 -116q-5 16 -11.5 40.5t-17.5 47t-28 38.5t-43 16q-32 0 -49.5 -18.5t-25.5 -49t-9 -69t-1 -78.5v-27h149
v-8h-149v-404z" />
    <glyph glyph-name="g" unicode="g" horiz-adv-x="446" 
d="M221 105q-61 0 -102 27.5t-62 69t-22 90t18.5 90.5t58.5 71t99 32q1 7 6.5 20t22 26t46.5 23t80 10v-78q-9 28 -32 39t-47 9t-44 -15t-23 -33h1q54 0 93 -22t61.5 -57t29 -77t-3 -83t-35 -75t-66.5 -52l1 1q-23 -10 -49 -19q-23 -8 -53 -15t-64 -11q61 2 114.5 -5
t92.5 -24t61.5 -45.5t22.5 -68.5q0 -46 -20.5 -77t-52.5 -50.5t-72 -28t-79 -8.5q-37 0 -70 8.5t-58 24.5t-39.5 38.5t-14.5 49.5q0 31 16.5 52.5t42.5 34.5t59.5 19t66.5 6q42 0 82 -9.5t69 -23.5q-11 29 -36 50t-61 33t-81.5 15t-97.5 -4l-8 18q56 0 98 8.5t66 16.5
q-5 0 -8 -0.5t-7 -0.5zM363 -75q0 19 -4 34q-32 17 -67 25t-67 8q-29 0 -53.5 -5.5t-43 -18t-29 -32t-10.5 -47.5q0 -49 37 -79t99 -30q36 0 62.5 11t43 30.5t24.5 46t8 57.5zM221 479q-38 0 -63.5 -27t-38 -68t-12.5 -88.5t12.5 -88.5t38 -68t63.5 -27t63 27t37.5 68
t12.5 88.5t-12.5 88.5t-37.5 68t-63 27z" />
    <glyph glyph-name="h" unicode="h" horiz-adv-x="524" 
d="M378 312q0 55 -16.5 89.5t-41 50t-53.5 13t-55 -22t-45 -55t-22 -85.5v-237q0 -26 17 -44t42 -20l16 -1h-218l16 1q25 2 42 20t17 44v496q0 11 -7.5 18t-17.5 7h-36l129 138v-367q15 50 43.5 80t62 41t68.5 5t63.5 -28t46.5 -58t18 -85v-247q0 -26 17 -44t42 -20l16 -1
h-218l16 1q25 2 41.5 20t16.5 44v247z" />
    <glyph glyph-name="i" unicode="i" horiz-adv-x="222" 
d="M100 560q-23 0 -39.5 16.5t-16.5 39.5t16.5 39.5t39.5 16.5t39.5 -16.5t16.5 -39.5t-16.5 -39.5t-39.5 -16.5zM18 1q25 2 42 20t17 44l-1 258q0 11 -7 18t-17 7h-36l129 138v-421q0 -26 17 -44t42 -20l16 -1h-218z" />
    <glyph glyph-name="j" unicode="j" horiz-adv-x="176" 
d="M15 348l130 138v-320q0 -78 -3.5 -149.5t-18 -126.5t-43 -87.5t-78.5 -32.5v8q25 0 39.5 29.5t22 80t10 116.5t2.5 138v181q0 11 -7 18t-18 7h-36zM100 560q-23 0 -39.5 16.5t-16.5 39.5t16.5 39.5t39.5 16.5t39.5 -16.5t16.5 -39.5t-16.5 -39.5t-39.5 -16.5z" />
    <glyph glyph-name="k" unicode="k" horiz-adv-x="544" 
d="M299 0q15 0 25.5 6t13 19t-4 32t-25.5 46l-112 154l-51 -66v-126q0 -26 16.5 -44t41.5 -20l16 -1h-217l15 1q25 2 42 20t17 44v496q0 11 -7 18t-18 7h-36l130 138v-519l97 125q103 147 19 147h200q-33 0 -58.5 -9.5t-48.5 -26.5t-45 -41.5t-47 -54.5l-29 -37l150 -205
q21 -26 39.5 -45.5t37.5 -32.5t39 -19t43 -6h-243v0z" />
    <glyph glyph-name="l" unicode="l" horiz-adv-x="222" 
d="M76 561q0 11 -7 18t-17 7h-36l129 138v-659q0 -26 17 -44t42 -20l16 -1h-218l16 1q25 2 42 20t17 44z" />
    <glyph glyph-name="m" unicode="m" horiz-adv-x="825" 
d="M622 1q25 2 41.5 20t16.5 44v247q0 57 -17 91.5t-43 48.5t-56 9.5t-56 -23.5t-43.5 -52t-17.5 -76v-245q0 -26 17 -44t42 -20l16 -1h-218l16 1q25 2 42 20t17 44v247q0 58 -17.5 92t-43 48t-56 9.5t-56 -24t-43 -53t-17.5 -76.5v-243q0 -26 16.5 -44t41.5 -20l16 -1h-218
l16 1q25 2 42 20t17 44v258q0 11 -7 18t-18 7h-36l130 138v-124q17 45 43 73t57 40.5t62.5 10t59.5 -18.5t48 -45t28 -69q11 35 28.5 60t38.5 41.5t44 24t45 7.5q28 0 55 -11.5t48 -34t33.5 -55t12.5 -73.5v-247q0 -26 17 -44t42 -20l15 -1h-217l16 1v0z" />
    <glyph glyph-name="n" unicode="n" horiz-adv-x="524" 
d="M378 312q0 58 -17.5 92t-43 48t-56 9.5t-56 -24t-43 -53t-17.5 -76.5v-243q0 -26 17 -44t42 -20l16 -1h-218l16 1q25 2 42 20t17 44v258q0 11 -7.5 18t-17.5 7h-36l129 138v-124q18 49 47.5 77.5t63 39.5t67.5 4.5t61.5 -28.5t45 -58t17.5 -85v-247q0 -26 17 -44t42 -20
l16 -1h-218l16 1q25 2 41.5 20t16.5 44v247z" />
    <glyph glyph-name="o" unicode="o" horiz-adv-x="490" 
d="M245 -8q-75 0 -125 36.5t-75 91.5t-25 119t25 119t75 91.5t125 36.5t125 -36.5t75 -91.5t25 -119t-25 -119t-75 -91.5t-125 -36.5zM245 477q-39 0 -68 -20.5t-48.5 -54t-29 -76t-9.5 -87.5t9.5 -87.5t29 -76t48.5 -54t68 -20.5t68 20.5t48.5 54t29 76t9.5 87.5t-9.5 87.5
t-29 76t-48.5 54t-68 20.5z" />
    <glyph glyph-name="p" unicode="p" horiz-adv-x="526" 
d="M145 338q16 55 49 89t73.5 47t82.5 4t77 -39t57 -81t22 -124q0 -72 -22.5 -123t-57.5 -81t-77.5 -39t-82.5 3t-72.5 45t-47.5 87l-1 -296q0 -25 17 -43t42 -20l15 -1h-217l16 1q25 2 41.5 20t16.5 43v583q0 26 -16.5 44t-41.5 20l-16 1h217l-15 -1q-25 -2 -42 -20
t-17 -44v-75zM146 219q1 -69 23 -115t54 -68.5t69 -21.5t69 25t53 71t21 118q0 74 -21 123.5t-53 74.5t-69 26t-69 -22.5t-54 -72t-23 -120.5v-18z" />
    <glyph glyph-name="q" unicode="q" horiz-adv-x="526" 
d="M322 -233q25 2 42 20t17 43l-1 296q-15 -54 -47.5 -87t-72.5 -45t-82.5 -3t-77.5 39t-57.5 81t-22.5 123q0 73 22 124t57 81t77 39t82.5 -4t73.5 -47t49 -89v75q0 26 -17 44t-42 20l-16 1h218l-16 -1q-25 -2 -41.5 -20t-16.5 -44v-583q0 -25 16.5 -43t41.5 -20l16 -1
h-218zM91 228q0 -71 21 -118t53 -71t69 -25t69 21.5t54 68.5t23 115v18q-1 72 -23 120.5t-54 72t-69 23t-69 -26t-53 -75t-21 -123.5z" />
    <glyph glyph-name="r" unicode="r" horiz-adv-x="348" 
d="M76 323q0 11 -7 18t-17 7h-36l129 138v-113q7 18 21 37.5t37.5 36.5t58.5 28t84 11v-63q-57 10 -101 5q-19 -2 -37 -8t-32 -18t-22.5 -30t-8.5 -44v-264q0 -25 17 -43t42 -20l16 -2h-218l16 2q25 2 41.5 20t16.5 43v259z" />
    <glyph glyph-name="s" unicode="s" horiz-adv-x="402" 
d="M382 137q0 -44 -20.5 -73.5t-53.5 -46.5t-73.5 -22.5t-80 -2t-74 15t-54.5 29.5l-6 159q3 -8 9 -26t16 -39.5t23.5 -44.5t32.5 -42.5t43 -31.5t54 -12q19 0 40.5 5t40.5 17.5t31.5 33.5t12.5 53q0 33 -21.5 55t-54 38t-70.5 29.5t-70.5 31.5t-54 43.5t-21.5 64.5
q0 37 20 60.5t50.5 36t68 16t73 1t64.5 -9.5t43 -15l7 -127q-5 12 -12 36t-22.5 48t-43 42t-72.5 18q-24 0 -44 -6.5t-35 -18t-23.5 -27t-8.5 -33.5q0 -32 21 -52t53 -35.5t69 -29t69 -31.5t53 -43t21 -64z" />
    <glyph glyph-name="t" unicode="t" horiz-adv-x="292" 
d="M171 -8q-44 0 -69.5 28.5t-25.5 89.5v359h-74v8h74v41l69 144v-185h129v-8h-129v-375q0 -40 18 -57t41 -17q18 0 33 3t26 7q13 4 24 10l3 -3q-15 -13 -33 -23q-16 -8 -38 -15t-48 -7z" />
    <glyph glyph-name="u" unicode="u" horiz-adv-x="511" 
d="M308 1q25 2 41.5 20t16.5 44v33q-13 -39 -40.5 -63t-61 -33.5t-69 -4.5t-65 23.5t-48.5 50t-19 75.5v207q0 10 -7 17.5t-18 7.5h-36l130 112v-343q0 -46 17.5 -77t43.5 -46t56 -14t56 18t43.5 50t17.5 83v162q0 11 -7 18t-18 7h-35l3 4h-3l129 138v-425q0 -26 17 -44
t42 -20l15 -1h-217l16 1v0z" />
    <glyph glyph-name="v" unicode="v" horiz-adv-x="522" 
d="M295 83l84 246q24 76 18.5 112t-49.5 36h172q-26 0 -45 -9t-34.5 -27t-28 -46t-25.5 -66l-112 -329h-20l-140 374q-19 58 -47 80.5t-66 22.5h219q-29 0 -42.5 -24.5t7.5 -78.5z" />
    <glyph glyph-name="w" unicode="w" horiz-adv-x="740" 
d="M221 477q-29 0 -42.5 -26t1.5 -77l94 -291l115 403h15l130 -403l71 246q19 79 12 113.5t-51 34.5h172q-52 0 -79 -36.5t-46 -111.5l-95 -329h-28l-123 382l-109 -382h-28l-120 374q-17 54 -44 78.5t-64 24.5h219v0z" />
    <glyph glyph-name="x" unicode="x" horiz-adv-x="504" 
d="M283 0q28 0 36 24.5t-21 78.5l-73 126l-50 -81q-40 -72 -39.5 -110t39.5 -38h-173q27 0 48 8.5t39.5 26.5t36.5 46t41 67l53 89l-79 137q-30 57 -62 80t-71 23h219q-14 0 -23.5 -5.5t-12.5 -17.5t1.5 -32t19.5 -48l50 -87l24 42q40 73 44.5 110.5t-35.5 37.5h164
q-28 0 -50 -9t-40.5 -27t-36.5 -46t-38 -66l-28 -48l103 -178q32 -55 63 -79t70 -24h-219v0z" />
    <glyph glyph-name="y" unicode="y" horiz-adv-x="512" 
d="M364 329q27 79 21.5 113.5t-47.5 34.5h172q-27 0 -46.5 -8t-35 -25.5t-28.5 -46t-28 -68.5l-124 -329q-33 -80 -63.5 -126t-52.5 -69q-26 -27 -49 -35l-52 62q38 9 73.5 30t64 46t47.5 50t25 42l14 40l-136 334q-40 103 -117 103h219q-14 0 -24.5 -6t-15.5 -18.5
t-3.5 -32t11.5 -46.5l100 -244l75 199v0z" />
    <glyph glyph-name="z" unicode="z" horiz-adv-x="372" 
d="M362 0h-360l268 469h-140q-18 0 -34 -15.5t-29.5 -37t-23.5 -45.5t-16 -41l8 147h324l-266 -469h174q18 0 34 15.5t29.5 37t23.5 45t16 40.5z" />
  </font>
</defs>
</svg>
